HIERARCHY
ROOT Hips
{
	OFFSET -3.958830 18.904000 13.208200
	CHANNELS 6 Xposition Yposition Zposition Zrotation Yrotation Xrotation 
	JOINT LHipJoint
	{
		OFFSET 0.000000 0.000000 0.000000
		CHANNELS 3 Zrotation Yrotation Xrotation
		JOINT LeftUpLeg
		{
			OFFSET 1.800000 -1.400000 0.085000
			CHANNELS 3 Zrotation Yrotation Xrotation
			JOINT LeftLeg
			{
				OFFSET 2.215000 -6.000000 0.000000
				CHANNELS 3 Zrotation Yrotation Xrotation
				JOINT LeftFoot
				{
					OFFSET 2.500000 -6.900000 0.000000
					CHANNELS 3 Zrotation Yrotation Xrotation
					JOINT LeftToeBase
					{
						OFFSET 0.200000 -0.500000 1.950000
						CHANNELS 3 Zrotation Yrotation Xrotation
						End Site
						{
							OFFSET 0.000000 0.000000 0.000000
						}
					}
				}
			}
		}
	}
	JOINT RHipJoint
	{
		OFFSET 0.000000 0.000000 0.000000
		CHANNELS 3 Zrotation Yrotation Xrotation
		JOINT RightUpLeg
		{
			OFFSET -1.800000 -1.400000 0.085000
			CHANNELS 3 Zrotation Yrotation Xrotation
			JOINT RightLeg
			{
				OFFSET -2.215000 -6.000000 0.000000
				CHANNELS 3 Zrotation Yrotation Xrotation
				JOINT RightFoot
				{
					OFFSET -2.500000 -6.900000 0.000000
					CHANNELS 3 Zrotation Yrotation Xrotation
					JOINT RightToeBase
					{
						OFFSET -0.200000 -0.500000 1.950000
						CHANNELS 3 Zrotation Yrotation Xrotation
						End Site
						{
							OFFSET 0.000000 0.000000 0.000000
						}
					}
				}
			}
		}
	}
	JOINT LowerBack
	{
		OFFSET 0.000000 0.000000 0.000000
		CHANNELS 3 Zrotation Yrotation Xrotation
		JOINT Spine
		{
			OFFSET -0.087000 1.940000 -0.288900
			CHANNELS 3 Zrotation Yrotation Xrotation
			JOINT Spine1
			{
				OFFSET 0.000000 1.950000 0.060000
				CHANNELS 3 Zrotation Yrotation Xrotation
				JOINT Neck
				{
					OFFSET 0.000000 0.000000 0.000000
					CHANNELS 3 Zrotation Yrotation Xrotation
					JOINT Neck1
					{
						OFFSET 0.000000 1.600000 0.340000
						CHANNELS 3 Zrotation Yrotation Xrotation
						JOINT Head
						{
							OFFSET 0.000000 1.667000 -0.240000
							CHANNELS 3 Zrotation Yrotation Xrotation
							End Site
							{
								OFFSET 0.000000 0.000000 0.000000
							}
						}
					}
				}
				JOINT LeftShoulder
				{
					OFFSET 0.000000 0.000000 0.000000
					CHANNELS 3 Zrotation Yrotation Xrotation
					JOINT LeftArm
					{
						OFFSET 2.700000 1.550000 -0.730000
						CHANNELS 3 Zrotation Yrotation Xrotation
						JOINT LeftForeArm
						{
							OFFSET 5.450000 0.000000 0.000000
							CHANNELS 3 Zrotation Yrotation Xrotation
							JOINT LeftHand
							{
								OFFSET 3.450000 0.000000 0.000000
								CHANNELS 3 Zrotation Yrotation Xrotation
								JOINT LeftHandIndex1
								{
									OFFSET 0.750000 0.000000 0.000000
									CHANNELS 3 Zrotation Yrotation Xrotation
									End Site
									{
										OFFSET 0.000000 0.000000 0.000000
									}
								}
							}
						}
					}
				}
				JOINT RightShoulder
				{
					OFFSET 0.000000 0.000000 0.000000
					CHANNELS 3 Zrotation Yrotation Xrotation
					JOINT RightArm
					{
						OFFSET -2.700000 1.550000 -0.730000
						CHANNELS 3 Zrotation Yrotation Xrotation
						JOINT RightForeArm
						{
							OFFSET -5.450000 0.000000 0.000000
							CHANNELS 3 Zrotation Yrotation Xrotation
							JOINT RightHand
							{
								OFFSET -3.450000 0.000000 0.000000
								CHANNELS 3 Zrotation Yrotation Xrotation
								JOINT RightHandIndex1
								{
									OFFSET -0.750000 0.000000 0.000000
									CHANNELS 3 Zrotation Yrotation Xrotation
									End Site
									{
										OFFSET 0.000000 0.000000 0.000000
									}
								}
							}
						}
					}
				}
			}
		}
	}
}
MOTION
Frames: 6
Frame Time: 0.016667
0.172240 15.650700 -1.438270 3.027469 -5.521007 -8.083002 -15.453777 11.925084 3.854618 -12.193399 -3.210183 -0.002090 -23.807240 21.279415 43.003400 1.946480 11.036409 1.048604 0.873040 0.351120 0.852530 18.414759 -7.804516 4.883107 -10.238150 10.797641 -42.735073 35.784466 -21.827277 41.343916 -1.869032 -9.536199 1.202190 -0.066100 -0.225050 0.574980 -3.453352 -3.569635 -9.366083 20.502477 -6.433433 33.652730 1.196149 -3.533739 10.583439 2.744635 -0.970097 -14.681108 -6.569230 2.580650 52.796661 -9.688760 5.975110 -0.720440 -3.101497 -13.337150 7.640397 -2.942192 3.082016 -1.776972 -97.093563 -45.595024 42.491941 -3.231825 4.140386 0.500130 -0.005560 0.276860 0.265260 -2.112441 14.187182 9.290181 23.139243 0.027258 -8.688991 92.114035 56.438234 41.389822 2.364371 -2.263827 0.324010 -0.417080 -0.463860 -0.231550 
0.165740 15.681350 -1.467260 2.049905 -6.856167 -7.598078 -15.432709 11.931977 3.807636 -10.785167 -3.543108 -1.565729 -24.586142 21.789284 43.086089 1.930668 11.136600 1.044042 0.865930 0.355280 0.840530 18.430435 -7.776957 4.917511 -9.598030 11.434520 -42.686943 36.691892 -21.437318 40.081570 -1.844637 -9.320933 1.309637 -0.047010 -0.193970 0.512770 -3.512569 -3.573898 -9.333846 21.704350 -6.743955 33.989362 0.994772 -3.205083 10.572852 2.800233 -2.106871 -14.634274 -8.993052 3.633589 51.937305 -9.507550 5.876540 -1.818230 -3.552137 -12.686247 7.669302 -6.248304 3.009734 -2.234024 -97.783734 -49.592476 46.727467 -3.253422 4.042976 0.526980 -0.014530 0.263220 0.286620 -1.735416 14.429353 9.233420 23.540130 0.114978 -9.091771 89.762002 58.635653 41.606740 2.378957 -2.161471 0.269320 -0.329350 -0.467820 -0.235200 
0.153820 15.724650 -1.487640 1.015857 -7.411231 -7.006214 -15.401682 11.854668 3.737807 -8.815854 -4.175241 -3.396282 -25.471330 22.436103 43.468987 1.887376 11.415295 0.998987 0.784310 0.248570 0.774070 18.465291 -7.712326 4.996864 -10.727852 11.356024 -43.213426 39.440950 -22.045129 38.594037 -1.836950 -9.421348 1.302916 -0.052150 -0.081340 0.472200 -3.616359 -3.517531 -9.305653 22.544112 -7.460645 34.167759 0.310333 -3.288063 10.026989 2.657333 -3.448171 -14.011303 -10.962604 4.729587 47.562350 -8.941240 6.208390 -1.851430 -4.065374 -10.737799 7.398572 -12.696763 2.566572 -2.894799 -104.142492 -55.698275 57.215593 -3.399631 3.946541 0.531750 0.039820 0.171460 0.282730 -0.959905 13.326499 8.557397 26.606695 1.376704 -9.409432 82.373058 62.554761 39.911259 2.359650 -2.066574 0.164230 -0.246050 -0.400730 -0.253360 
0.137370 15.790840 -1.484700 0.109745 -7.549999 -5.913262 -15.356699 11.688604 3.668703 -6.877442 -5.048670 -5.733333 -25.506959 23.047982 44.963707 1.918291 11.761141 0.913550 0.725370 0.167620 0.721910 18.522803 -7.636416 5.122343 -13.325366 10.566683 -44.405508 42.772240 -23.594200 37.762004 -1.887678 -9.801407 1.187874 -0.071240 0.006370 0.482230 -3.774239 -3.350678 -9.296769 23.325681 -7.926774 32.733205 -0.726140 -3.359807 9.034648 2.564413 -4.449402 -13.224633 -12.291737 5.590861 43.912622 -8.281560 6.648940 -0.649670 -4.583907 -8.261800 6.737876 -20.602699 0.317489 -3.022006 -108.836973 -60.439288 66.199187 -3.545517 3.895761 0.483970 0.100980 0.092010 0.273210 -0.328664 11.347535 7.720792 30.423069 2.392270 -9.109043 74.050945 63.413599 35.973071 2.273088 -2.145980 0.131510 -0.241180 -0.348960 -0.248830 
0.126360 15.863150 -1.442440 -0.925560 -6.315281 -3.865944 -15.258477 11.417063 3.598913 -4.850754 -6.346762 -8.818662 -23.910080 23.007396 47.574777 1.871514 12.112465 0.823251 0.563180 -0.046090 0.606180 18.631622 -7.643952 5.285404 -17.204828 8.458897 -45.677433 47.296029 -25.470458 35.547475 -1.891208 -10.098974 1.116974 -0.150650 0.130680 0.457330 -4.067575 -2.907435 -9.320808 25.133083 -7.921078 28.327938 -2.660244 -3.083639 8.186774 2.839042 -3.909371 -13.139716 -11.110853 5.032746 43.482153 -7.486320 6.703940 2.768950 -5.020059 -6.669799 6.315023 -27.964004 -1.684387 -2.687880 -109.854106 -63.570409 70.555300 -3.690355 3.744300 0.485450 0.175650 -0.019110 0.240680 -0.620448 8.971700 7.963956 37.781632 0.143553 -9.737869 68.368542 63.562998 32.903484 2.170675 -2.172979 0.025090 -0.200330 -0.234290 -0.271350 
0.097000 15.959910 -1.402740 -1.350815 -5.346473 -3.126965 -15.222438 11.344856 3.561079 -3.190523 -7.259619 -10.942766 -21.441320 22.771842 50.781497 2.019894 12.322257 0.800391 0.542950 -0.048600 0.541270 18.666344 -7.643585 5.340990 -20.723391 6.274876 -44.925599 50.310719 -27.164721 34.351543 -1.956261 -10.346123 1.090569 -0.196860 0.161350 0.443980 -4.156612 -2.861661 -9.337616 24.887978 -7.878317 26.232516 -3.800120 -3.164832 6.970416 2.949296 -4.334818 -13.377413 -12.117557 5.344012 43.248730 -5.819100 5.832760 5.500210 -5.040799 -4.341423 6.427944 -36.304049 -0.893547 -3.497448 -105.179883 -66.109441 68.111563 -3.662231 3.742194 0.430770 0.173150 -0.029300 0.295600 -0.857932 6.977561 8.079669 44.369623 -2.103343 -10.932824 65.390497 63.336762 31.013616 2.164558 -2.266615 0.067170 -0.219630 -0.272810 -0.206860 
